<?xml version="1.0" standalone="no"?>
<!DOCTYPE svg PUBLIC "-//W3C//DTD SVG 20010904//EN"
 "http://www.w3.org/TR/2001/REC-SVG-20010904/DTD/svg10.dtd">
<svg version="1.0" xmlns="http://www.w3.org/2000/svg"
 width="256.000000pt" height="256.000000pt" viewBox="0 0 256.000000 256.000000"
 preserveAspectRatio="xMidYMid meet">
<metadata>
Created by potrace 1.11, written by Peter Selinger 2001-2013
</metadata>
<g transform="translate(0.000000,256.000000) scale(0.100000,-0.100000)"
fill="#000000" stroke="none">
<path d="M529 2346 c-15 -66 -20 -228 -9 -286 8 -42 6 -48 -26 -92 -40 -54
-89 -158 -98 -208 -3 -19 -9 -46 -11 -60 -5 -21 -7 -131 -3 -197 0 -10 7 -45
14 -78 8 -33 14 -64 14 -70 0 -6 -66 -11 -176 -12 -97 -1 -187 -4 -200 -7 -59
-15 -9 -21 183 -21 199 -1 217 -3 214 -30 -1 -3 -49 -8 -108 -10 -60 -2 -121
-6 -138 -9 -111 -20 -145 -30 -145 -42 0 -9 8 -10 33 -4 17 5 57 11 87 14 30
3 75 9 99 12 25 4 79 7 120 8 l76 1 29 -43 c86 -129 283 -237 489 -267 26 -4
47 -10 47 -14 0 -3 -14 -22 -30 -41 -17 -19 -39 -57 -49 -85 l-19 -50 -83 -2
c-46 -1 -102 3 -124 9 -42 10 -108 56 -185 127 -53 49 -133 91 -172 91 -15 0
-28 -1 -28 -3 0 -2 21 -26 48 -53 26 -27 72 -92 102 -143 59 -103 125 -176
180 -199 21 -9 81 -17 150 -20 63 -2 117 -6 119 -8 6 -5 2 -293 -4 -323 -2
-13 -14 -34 -26 -47 l-21 -22 51 3 c67 4 127 39 141 81 6 18 12 117 12 222 2
187 10 254 28 222 4 -8 7 -121 6 -251 -1 -218 -3 -237 -21 -255 -18 -19 -18
-19 25 -22 54 -4 126 22 142 51 9 18 22 275 19 377 -2 44 1 115 4 118 2 2 8 1
13 -2 9 -5 12 -126 14 -427 1 -64 71 -119 153 -119 l36 0 -17 32 c-14 28 -17
68 -17 265 -1 128 2 236 6 239 17 17 21 -17 23 -164 4 -277 3 -273 34 -303 26
-26 68 -42 137 -52 43 -7 47 1 19 33 -26 31 -25 23 -30 350 -3 226 -10 267
-58 329 -25 33 -23 38 22 45 80 13 226 66 282 103 72 48 159 131 183 177 19
36 26 38 90 39 55 0 212 -13 259 -22 25 -5 46 -7 46 -4 0 2 9 -1 19 -6 14 -8
20 -7 24 3 8 21 -130 47 -273 52 -47 1 -93 3 -102 3 -10 1 -18 8 -18 16 0 12
17 15 88 16 262 2 331 5 337 11 13 13 -65 20 -235 21 l-171 1 8 51 c4 27 8
111 8 185 0 121 -3 144 -29 222 -15 48 -49 120 -74 160 l-46 73 -2 100 c-1 55
-5 114 -8 130 -27 139 -19 129 -85 122 -75 -8 -185 -47 -275 -96 -40 -23 -76
-38 -79 -35 -12 13 -229 31 -337 28 -135 -3 -255 -15 -267 -28 -3 -3 -49 17
-102 44 -102 52 -179 77 -267 89 l-53 8 -12 -51z m-42 -1452 c-3 -3 -12 -4
-19 -1 -8 3 -5 6 6 6 11 1 17 -2 13 -5z m38 -34 c-3 -5 -10 -10 -16 -10 -5 0
-9 5 -9 10 0 6 7 10 16 10 8 0 12 -4 9 -10z m34 -51 c-7 -4 -17 -5 -22 -2 -5
3 -3 9 4 14 7 4 17 5 22 2 5 -3 3 -9 -4 -14z m51 -34 c0 -8 -7 -15 -15 -15
-16 0 -20 12 -8 23 11 12 23 8 23 -8z m65 -34 c7 -12 -12 -24 -25 -16 -11 7
-4 25 10 25 5 0 11 -4 15 -9z m75 -32 c0 -5 -9 -9 -20 -9 -22 0 -27 16 -7 23
15 5 27 -1 27 -14z m80 -4 c0 -17 -2 -18 -24 -9 -23 9 -20 24 4 24 11 0 20 -7
20 -15z m80 6 c0 -14 -18 -23 -30 -16 -6 4 -8 11 -5 16 8 12 35 12 35 0z"/>
</g>
</svg>
